<?xml version="1.0" standalone="no"?>
<!DOCTYPE svg PUBLIC "-//W3C//DTD SVG 20010904//EN"
 "http://www.w3.org/TR/2001/REC-SVG-20010904/DTD/svg10.dtd">
<svg version="1.0" xmlns="http://www.w3.org/2000/svg"
 width="727.000000pt" height="343.000000pt" viewBox="0 0 727.000000 343.000000"
 preserveAspectRatio="xMidYMid meet">

<g transform="translate(0.000000,343.000000) scale(0.100000,-0.100000)"
fill="#000000" stroke="none">
<path d="M3790 2330 c-30 -4 -82 -8 -114 -9 -33 -1 -85 -6 -115 -11 -75 -14
-256 -39 -366 -52 -108 -12 -546 -15 -807 -4 -219 9 -219 9 -130 -76 31 -31
84 -87 117 -127 50 -59 68 -73 109 -86 27 -8 64 -15 81 -15 17 0 54 -6 81 -14
75 -22 263 -37 548 -43 256 -6 260 -6 284 -30 44 -45 10 -96 -153 -226 -134
-107 -175 -131 -255 -145 -48 -9 -69 -6 -165 20 -177 47 -201 52 -219 45 -38
-15 26 -88 159 -182 134 -95 161 -117 271 -226 60 -60 115 -109 120 -109 6 0
30 17 53 37 24 20 56 46 72 57 15 12 54 42 87 68 240 191 469 306 673 338 59
10 104 10 200 0 68 -6 131 -16 140 -21 10 -5 25 -9 34 -9 24 0 75 -41 75 -61
0 -31 -17 -30 -97 7 -69 31 -90 36 -184 41 -72 4 -112 2 -128 -6 -12 -7 -47
-16 -79 -21 -69 -12 -268 -109 -367 -179 -38 -27 -100 -70 -136 -95 -36 -24
-87 -63 -113 -85 -25 -22 -81 -63 -123 -92 -116 -78 -127 -76 -254 47 -141
137 -191 180 -309 269 -104 78 -129 105 -172 190 -22 44 -53 98 -68 120 -15
22 -55 94 -90 160 -34 66 -70 129 -80 140 -21 23 -70 117 -70 134 0 6 -4 11
-9 11 -6 0 -18 13 -27 29 -9 16 -33 38 -53 49 -20 11 -47 32 -60 46 -14 15
-43 31 -65 37 -23 5 -50 14 -61 19 -11 4 -39 11 -62 13 -33 4 -43 2 -43 -9 0
-14 43 -93 99 -182 12 -18 24 -45 27 -60 4 -15 21 -63 39 -107 18 -44 41 -114
50 -155 10 -41 23 -86 30 -100 19 -36 43 -107 55 -165 10 -44 88 -192 157
-296 51 -77 412 -413 526 -489 65 -43 85 -69 72 -90 -3 -5 -14 -10 -24 -10
-22 0 -106 45 -141 76 -100 87 -148 131 -245 224 -214 207 -213 206 -475 328
-19 9 -73 42 -118 72 -46 30 -109 72 -140 92 -53 35 -105 57 -237 102 -60 21
-268 45 -383 46 -71 0 -83 -2 -80 -16 2 -9 26 -28 53 -43 241 -128 642 -411
890 -628 50 -43 101 -88 115 -100 14 -11 57 -48 95 -81 98 -83 169 -126 256
-155 86 -29 205 -40 269 -27 73 16 529 23 699 11 178 -13 231 -4 341 57 36 19
92 50 125 67 33 17 87 46 120 65 215 118 643 310 885 397 275 98 378 116 645
113 169 -1 344 -20 460 -49 22 -6 74 -17 115 -25 92 -17 151 -32 210 -53 25
-9 66 -18 92 -20 l46 -5 21 48 c24 53 37 116 52 254 12 103 6 311 -10 363 -5
18 -15 61 -21 97 -15 82 -74 224 -113 270 -58 68 -46 66 -337 40 -52 -5 -252
-16 -445 -25 -361 -17 -476 -15 -990 16 -205 12 -208 13 -375 91 -47 22 -98
46 -115 53 -94 44 -313 72 -425 55z"/>
<path d="M2063 1774 c3 -20 9 -39 12 -42 11 -12 16 8 10 42 -9 48 -29 48 -22
0z"/>
<path d="M1090 1086 c-41 -7 -98 -20 -126 -28 -63 -20 -174 -75 -174 -87 0
-12 37 -24 49 -17 15 10 280 -13 406 -35 66 -11 145 -24 175 -29 30 -5 75 -15
100 -23 25 -9 81 -27 125 -41 44 -14 114 -37 155 -52 41 -14 91 -30 110 -34
36 -9 101 -30 180 -60 25 -10 64 -20 88 -24 39 -6 42 -5 31 12 -7 10 -30 30
-53 45 -22 15 -59 43 -80 64 -22 21 -54 49 -72 63 -18 14 -63 50 -101 80 -76
63 -153 110 -178 110 -9 0 -55 11 -103 24 -59 17 -126 27 -207 30 -66 4 -149
8 -185 10 -36 2 -99 -2 -140 -8z"/>
</g>
</svg>
