<?xml version="1.0" standalone="no"?>
<!DOCTYPE svg PUBLIC "-//W3C//DTD SVG 20010904//EN"
 "http://www.w3.org/TR/2001/REC-SVG-20010904/DTD/svg10.dtd">
<svg version="1.0" xmlns="http://www.w3.org/2000/svg"
 width="376.000000pt" height="240.000000pt" viewBox="0 0 376.000000 240.000000"
 preserveAspectRatio="xMidYMid meet">

<g transform="translate(0.000000,240.000000) scale(0.100000,-0.100000)"
fill="#000000" stroke="none">
<path d="M2358 1999 c-10 -5 -35 -36 -57 -67 -50 -74 -125 -144 -190 -176 -68
-35 -220 -85 -371 -121 -36 -9 -90 -22 -120 -30 -30 -8 -104 -26 -165 -40 -60
-15 -118 -31 -127 -36 -10 -5 -22 -9 -28 -9 -27 0 -316 -198 -367 -252 -17
-18 -40 -49 -51 -68 -52 -93 -57 -100 -79 -100 -35 0 -29 25 23 97 25 35 44
66 41 69 -2 3 -56 0 -118 -5 -63 -6 -235 -18 -384 -27 -245 -15 -272 -18 -287
-36 -16 -18 -18 -48 -18 -308 0 -298 2 -314 46 -407 21 -46 31 -45 249 30 225
78 374 83 630 21 169 -41 178 -43 308 -61 126 -17 126 -17 274 7 169 28 407
37 487 20 77 -17 389 -24 466 -10 122 21 155 27 185 38 51 17 286 62 325 62
16 0 32 5 35 10 3 6 15 10 25 10 25 0 51 40 44 67 -4 14 -21 28 -48 38 -36 14
-55 15 -126 5 -263 -34 -720 -36 -851 -4 -71 17 -138 61 -125 82 4 7 31 12 63
12 31 0 72 4 92 9 20 5 77 17 126 27 50 9 94 21 99 25 6 5 16 9 22 9 7 0 25 5
41 12 15 6 48 19 72 28 25 9 46 21 48 27 6 17 -34 23 -177 24 -167 0 -295 18
-295 39 0 17 39 17 382 5 157 -6 194 -5 205 6 69 74 129 152 122 158 -5 5 -58
4 -117 -2 -97 -10 -121 -9 -225 10 -124 23 -131 25 -315 72 -174 45 -204 65
-178 115 12 22 92 84 145 111 200 105 262 155 320 259 24 44 28 62 29 133 1
74 -1 85 -23 108 -26 27 -36 30 -62 14z m-928 -912 c92 -31 154 -56 276 -113
49 -23 106 -79 102 -99 -5 -30 -21 -27 -69 12 -50 42 -98 67 -204 108 -168 65
-190 72 -257 80 -45 6 -66 24 -52 47 10 16 90 3 204 -35z"/>
<path d="M3215 1421 c-57 -10 -166 -63 -233 -114 -64 -50 -103 -91 -212 -226
-44 -56 -99 -110 -135 -135 -53 -37 -82 -52 -170 -86 -11 -4 -36 -15 -55 -23
-19 -8 -60 -20 -90 -27 -30 -6 -70 -16 -89 -22 -19 -6 -58 -14 -85 -17 -50 -6
-48 -7 65 -25 88 -14 150 -17 255 -14 164 6 188 14 278 96 34 31 84 75 111 96
28 22 70 64 94 94 38 46 198 194 305 283 17 13 48 41 70 62 40 36 40 38 22 52
-20 16 -62 17 -131 6z"/>
<path d="M3240 1211 c0 -5 -8 -12 -18 -15 -10 -4 -27 -14 -38 -24 -10 -9 -36
-30 -57 -45 -53 -40 -88 -77 -82 -86 2 -5 24 -4 47 0 76 16 226 27 287 22 50
-5 64 -2 90 16 17 12 31 30 31 40 0 26 -35 67 -72 85 -34 18 -188 23 -188 7z"/>
<path d="M3078 991 c-88 -5 -99 -8 -115 -30 -21 -30 -84 -91 -95 -91 -17 0
-118 -96 -118 -112 0 -11 129 -1 175 13 30 9 111 23 235 40 36 6 139 13 230
17 91 4 171 11 178 15 36 24 -5 106 -66 134 -41 18 -251 25 -424 14z"/>
</g>
</svg>
