<?xml version="1.0" standalone="no"?>
<!DOCTYPE svg PUBLIC "-//W3C//DTD SVG 20010904//EN"
 "http://www.w3.org/TR/2001/REC-SVG-20010904/DTD/svg10.dtd">
<svg version="1.0" xmlns="http://www.w3.org/2000/svg"
 width="165.000000pt" height="214.000000pt" viewBox="0 0 165.000000 214.000000"
 preserveAspectRatio="xMidYMid meet">

<g transform="translate(0.000000,214.000000) scale(0.100000,-0.100000)"
fill="#000000" stroke="none">
<path d="M651 2013 c13 -21 34 -55 47 -77 l24 -38 17 28 c9 16 29 50 44 77
l28 47 -91 0 -92 0 23 -37z"/>
<path d="M860 2045 c0 -5 51 -96 70 -124 15 -22 16 -21 55 45 22 37 42 71 43
76 2 4 -35 8 -82 8 -47 0 -86 -2 -86 -5z"/>
<path d="M817 2018 c-43 -70 -77 -129 -77 -133 0 -3 41 -5 90 -5 50 0 90 3 90
6 0 7 -55 107 -76 137 -12 18 -13 18 -27 -5z"/>
<path d="M1041 2018 c-24 -39 -71 -126 -71 -132 0 -3 34 -6 75 -6 41 0 75 4
75 9 0 4 -15 41 -32 80 -32 69 -33 71 -47 49z"/>
<path d="M575 1968 c-15 -35 -29 -69 -32 -75 -4 -10 15 -13 77 -13 45 0 80 3
78 8 -16 35 -81 142 -88 142 -4 0 -20 -28 -35 -62z"/>
<path d="M483 1956 c-45 -33 -82 -64 -83 -68 0 -5 25 -8 56 -8 l55 0 31 65
c17 37 29 67 27 69 -2 2 -41 -24 -86 -58z"/>
<path d="M1116 1963 c14 -32 28 -64 31 -70 5 -12 123 -20 123 -8 0 4 -143 114
-168 129 -7 4 -1 -19 14 -51z"/>
<path d="M426 1818 c85 -90 254 -278 254 -282 0 -3 -26 -13 -57 -22 -250 -72
-454 -284 -517 -539 -24 -93 -24 -266 0 -360 82 -333 383 -565 731 -565 412 0
743 334 743 747 0 329 -214 614 -538 718 l-64 20 28 30 c16 17 82 89 148 160
l120 130 -65 3 c-35 2 -65 -1 -66 -5 -13 -37 -198 -324 -201 -312 -2 9 34 77
78 150 45 74 86 142 91 152 9 16 3 17 -74 17 l-83 0 -33 -147 c-33 -151 -50
-202 -51 -151 0 23 42 234 56 281 5 15 -4 17 -90 17 -70 0 -96 -3 -96 -12 0
-7 14 -77 31 -156 28 -129 31 -168 13 -149 -3 3 -19 68 -35 143 -40 193 -27
174 -120 174 -43 0 -79 -3 -79 -7 1 -5 15 -31 33 -60 113 -184 148 -245 142
-251 -9 -9 -22 9 -122 176 l-86 142 -65 0 -66 0 40 -42z m578 -388 c119 -30
206 -82 306 -180 69 -69 94 -101 128 -170 96 -196 96 -411 0 -610 -58 -119
-178 -240 -298 -298 -115 -56 -183 -72 -309 -72 -111 0 -214 22 -295 63 -194
98 -335 284 -371 491 -19 110 -19 132 0 240 26 148 112 300 224 394 81 69 228
140 321 155 73 12 221 6 294 -13z"/>
</g>
</svg>
